<mxfile host="65bd71144e">
    <diagram id="dPjS8bzleq3-vOP9vOj0" name="Page-1">
        <mxGraphModel dx="626" dy="376" grid="1" gridSize="10" guides="1" tooltips="1" connect="1" arrows="1" fold="1" page="1" pageScale="1" pageWidth="827" pageHeight="1169" math="0" shadow="0">
            <root>
                <mxCell id="0"/>
                <mxCell id="1" parent="0"/>
                <mxCell id="52" style="edgeStyle=none;html=1;exitX=0.5;exitY=0;exitDx=0;exitDy=0;entryX=0.5;entryY=1;entryDx=0;entryDy=0;" edge="1" parent="1" source="44" target="47">
                    <mxGeometry relative="1" as="geometry"/>
                </mxCell>
                <mxCell id="44" value="mtmSortableItem" style="rounded=0;whiteSpace=wrap;html=1;" vertex="1" parent="1">
                    <mxGeometry x="294" y="410" width="120" height="60" as="geometry"/>
                </mxCell>
                <mxCell id="53" value="" style="edgeStyle=none;html=1;" edge="1" parent="1" source="47" target="48">
                    <mxGeometry relative="1" as="geometry"/>
                </mxCell>
                <mxCell id="47" value="mtmSortableFolder" style="rounded=0;whiteSpace=wrap;html=1;" vertex="1" parent="1">
                    <mxGeometry x="294" y="320" width="120" height="60" as="geometry"/>
                </mxCell>
                <mxCell id="48" value="mtmFolderContainer" style="rounded=0;whiteSpace=wrap;html=1;" vertex="1" parent="1">
                    <mxGeometry x="294" y="230" width="120" height="60" as="geometry"/>
                </mxCell>
                <mxCell id="55" value="" style="edgeStyle=none;html=1;" edge="1" parent="1" source="54" target="44">
                    <mxGeometry relative="1" as="geometry"/>
                </mxCell>
                <mxCell id="58" style="edgeStyle=none;html=1;exitX=1;exitY=0;exitDx=0;exitDy=0;" edge="1" parent="1" source="54" target="47">
                    <mxGeometry relative="1" as="geometry"/>
                </mxCell>
                <mxCell id="54" value="mtmContextMenu" style="rounded=0;whiteSpace=wrap;html=1;" vertex="1" parent="1">
                    <mxGeometry x="120" y="410" width="120" height="60" as="geometry"/>
                </mxCell>
                <mxCell id="61" value="" style="edgeStyle=none;html=1;" edge="1" parent="1" source="60" target="47">
                    <mxGeometry relative="1" as="geometry"/>
                </mxCell>
                <mxCell id="60" value="mtmGetItems" style="ellipse;whiteSpace=wrap;html=1;" vertex="1" parent="1">
                    <mxGeometry x="530" y="310" width="120" height="80" as="geometry"/>
                </mxCell>
                <mxCell id="62" value="Assets" style="childLayout=tableLayout;recursiveResize=0;strokeColor=#98bf21;fillColor=#A7C942;shadow=1;" vertex="1" parent="1">
                    <mxGeometry x="134" y="530" width="486" height="160" as="geometry"/>
                </mxCell>
                <mxCell id="63" style="shape=tableRow;horizontal=0;startSize=0;swimlaneHead=0;swimlaneBody=0;top=0;left=0;bottom=0;right=0;dropTarget=0;collapsible=0;recursiveResize=0;expand=0;fontStyle=0;strokeColor=inherit;fillColor=#ffffff;" vertex="1" parent="62">
                    <mxGeometry width="486" height="33" as="geometry"/>
                </mxCell>
                <mxCell id="64" value="mtmContextMenu" style="connectable=0;recursiveResize=0;strokeColor=inherit;fillColor=#A7C942;align=center;fontStyle=1;fontColor=#FFFFFF;html=1;" vertex="1" parent="63">
                    <mxGeometry width="126" height="33" as="geometry">
                        <mxRectangle width="126" height="33" as="alternateBounds"/>
                    </mxGeometry>
                </mxCell>
                <mxCell id="65" value="mtmSortableItem" style="connectable=0;recursiveResize=0;strokeColor=inherit;fillColor=#A7C942;align=center;fontStyle=1;fontColor=#FFFFFF;html=1;" vertex="1" parent="63">
                    <mxGeometry x="126" width="120" height="33" as="geometry">
                        <mxRectangle width="120" height="33" as="alternateBounds"/>
                    </mxGeometry>
                </mxCell>
                <mxCell id="66" value="mtmSortableFolder" style="connectable=0;recursiveResize=0;strokeColor=inherit;fillColor=#A7C942;align=center;fontStyle=1;fontColor=#FFFFFF;html=1;" vertex="1" parent="63">
                    <mxGeometry x="246" width="120" height="33" as="geometry">
                        <mxRectangle width="120" height="33" as="alternateBounds"/>
                    </mxGeometry>
                </mxCell>
                <mxCell id="83" value="mtmFolderContainer" style="connectable=0;recursiveResize=0;strokeColor=inherit;fillColor=#A7C942;align=center;fontStyle=1;fontColor=#FFFFFF;html=1;" vertex="1" parent="63">
                    <mxGeometry x="366" width="120" height="33" as="geometry">
                        <mxRectangle width="120" height="33" as="alternateBounds"/>
                    </mxGeometry>
                </mxCell>
                <mxCell id="67" value="" style="shape=tableRow;horizontal=0;startSize=0;swimlaneHead=0;swimlaneBody=0;top=0;left=0;bottom=0;right=0;dropTarget=0;collapsible=0;recursiveResize=0;expand=0;fontStyle=0;strokeColor=inherit;fillColor=#ffffff;" vertex="1" parent="62">
                    <mxGeometry y="33" width="486" height="32" as="geometry"/>
                </mxCell>
                <mxCell id="68" value="displayMenu" style="connectable=0;recursiveResize=0;strokeColor=inherit;fillColor=inherit;align=center;whiteSpace=wrap;html=1;" vertex="1" parent="67">
                    <mxGeometry width="126" height="32" as="geometry">
                        <mxRectangle width="126" height="32" as="alternateBounds"/>
                    </mxGeometry>
                </mxCell>
                <mxCell id="69" value="create" style="connectable=0;recursiveResize=0;strokeColor=inherit;fillColor=inherit;align=center;whiteSpace=wrap;html=1;" vertex="1" parent="67">
                    <mxGeometry x="126" width="120" height="32" as="geometry">
                        <mxRectangle width="120" height="32" as="alternateBounds"/>
                    </mxGeometry>
                </mxCell>
                <mxCell id="70" value="mtmGetItem" style="connectable=0;recursiveResize=0;strokeColor=inherit;fillColor=inherit;align=center;whiteSpace=wrap;html=1;" vertex="1" parent="67">
                    <mxGeometry x="246" width="120" height="32" as="geometry">
                        <mxRectangle width="120" height="32" as="alternateBounds"/>
                    </mxGeometry>
                </mxCell>
                <mxCell id="84" style="connectable=0;recursiveResize=0;strokeColor=inherit;fillColor=inherit;align=center;whiteSpace=wrap;html=1;" vertex="1" parent="67">
                    <mxGeometry x="366" width="120" height="32" as="geometry">
                        <mxRectangle width="120" height="32" as="alternateBounds"/>
                    </mxGeometry>
                </mxCell>
                <mxCell id="71" value="" style="shape=tableRow;horizontal=0;startSize=0;swimlaneHead=0;swimlaneBody=0;top=0;left=0;bottom=0;right=0;dropTarget=0;collapsible=0;recursiveResize=0;expand=0;fontStyle=1;strokeColor=inherit;fillColor=#EAF2D3;" vertex="1" parent="62">
                    <mxGeometry y="65" width="486" height="31" as="geometry"/>
                </mxCell>
                <mxCell id="72" value="hideMenu" style="connectable=0;recursiveResize=0;strokeColor=inherit;fillColor=inherit;whiteSpace=wrap;html=1;" vertex="1" parent="71">
                    <mxGeometry width="126" height="31" as="geometry">
                        <mxRectangle width="126" height="31" as="alternateBounds"/>
                    </mxGeometry>
                </mxCell>
                <mxCell id="73" value="contextEventHandler" style="connectable=0;recursiveResize=0;strokeColor=inherit;fillColor=inherit;whiteSpace=wrap;html=1;" vertex="1" parent="71">
                    <mxGeometry x="126" width="120" height="31" as="geometry">
                        <mxRectangle width="120" height="31" as="alternateBounds"/>
                    </mxGeometry>
                </mxCell>
                <mxCell id="74" value="" style="connectable=0;recursiveResize=0;strokeColor=inherit;fillColor=inherit;whiteSpace=wrap;html=1;" vertex="1" parent="71">
                    <mxGeometry x="246" width="120" height="31" as="geometry">
                        <mxRectangle width="120" height="31" as="alternateBounds"/>
                    </mxGeometry>
                </mxCell>
                <mxCell id="85" style="connectable=0;recursiveResize=0;strokeColor=inherit;fillColor=inherit;whiteSpace=wrap;html=1;" vertex="1" parent="71">
                    <mxGeometry x="366" width="120" height="31" as="geometry">
                        <mxRectangle width="120" height="31" as="alternateBounds"/>
                    </mxGeometry>
                </mxCell>
                <mxCell id="75" value="" style="shape=tableRow;horizontal=0;startSize=0;swimlaneHead=0;swimlaneBody=0;top=0;left=0;bottom=0;right=0;dropTarget=0;collapsible=0;recursiveResize=0;expand=0;fontStyle=0;strokeColor=inherit;fillColor=#ffffff;" vertex="1" parent="62">
                    <mxGeometry y="96" width="486" height="33" as="geometry"/>
                </mxCell>
                <mxCell id="76" value="" style="connectable=0;recursiveResize=0;strokeColor=inherit;fillColor=inherit;fontStyle=0;align=center;whiteSpace=wrap;html=1;" vertex="1" parent="75">
                    <mxGeometry width="126" height="33" as="geometry">
                        <mxRectangle width="126" height="33" as="alternateBounds"/>
                    </mxGeometry>
                </mxCell>
                <mxCell id="77" value="" style="connectable=0;recursiveResize=0;strokeColor=inherit;fillColor=inherit;fontStyle=0;align=center;whiteSpace=wrap;html=1;" vertex="1" parent="75">
                    <mxGeometry x="126" width="120" height="33" as="geometry">
                        <mxRectangle width="120" height="33" as="alternateBounds"/>
                    </mxGeometry>
                </mxCell>
                <mxCell id="78" value="" style="connectable=0;recursiveResize=0;strokeColor=inherit;fillColor=inherit;fontStyle=0;align=center;whiteSpace=wrap;html=1;" vertex="1" parent="75">
                    <mxGeometry x="246" width="120" height="33" as="geometry">
                        <mxRectangle width="120" height="33" as="alternateBounds"/>
                    </mxGeometry>
                </mxCell>
                <mxCell id="86" style="connectable=0;recursiveResize=0;strokeColor=inherit;fillColor=inherit;fontStyle=0;align=center;whiteSpace=wrap;html=1;" vertex="1" parent="75">
                    <mxGeometry x="366" width="120" height="33" as="geometry">
                        <mxRectangle width="120" height="33" as="alternateBounds"/>
                    </mxGeometry>
                </mxCell>
                <mxCell id="79" value="" style="shape=tableRow;horizontal=0;startSize=0;swimlaneHead=0;swimlaneBody=0;top=0;left=0;bottom=0;right=0;dropTarget=0;collapsible=0;recursiveResize=0;expand=0;fontStyle=1;strokeColor=inherit;fillColor=#EAF2D3;" vertex="1" parent="62">
                    <mxGeometry y="129" width="486" height="31" as="geometry"/>
                </mxCell>
                <mxCell id="80" value="" style="connectable=0;recursiveResize=0;strokeColor=inherit;fillColor=inherit;whiteSpace=wrap;html=1;" vertex="1" parent="79">
                    <mxGeometry width="126" height="31" as="geometry">
                        <mxRectangle width="126" height="31" as="alternateBounds"/>
                    </mxGeometry>
                </mxCell>
                <mxCell id="81" value="" style="connectable=0;recursiveResize=0;strokeColor=inherit;fillColor=inherit;whiteSpace=wrap;html=1;" vertex="1" parent="79">
                    <mxGeometry x="126" width="120" height="31" as="geometry">
                        <mxRectangle width="120" height="31" as="alternateBounds"/>
                    </mxGeometry>
                </mxCell>
                <mxCell id="82" value="" style="connectable=0;recursiveResize=0;strokeColor=inherit;fillColor=inherit;whiteSpace=wrap;html=1;" vertex="1" parent="79">
                    <mxGeometry x="246" width="120" height="31" as="geometry">
                        <mxRectangle width="120" height="31" as="alternateBounds"/>
                    </mxGeometry>
                </mxCell>
                <mxCell id="87" style="connectable=0;recursiveResize=0;strokeColor=inherit;fillColor=inherit;whiteSpace=wrap;html=1;" vertex="1" parent="79">
                    <mxGeometry x="366" width="120" height="31" as="geometry">
                        <mxRectangle width="120" height="31" as="alternateBounds"/>
                    </mxGeometry>
                </mxCell>
            </root>
        </mxGraphModel>
    </diagram>
</mxfile>